
<svg width="170" height="23" viewBox="0 0 170 23" fill="none" xmlns="http://www.w3.org/2000/svg">
    <mask id="mask0" maskType="alpha" maskUnits="userSpaceOnUse" x="0" y="0" width="170" height="23">
        <path fillRule="evenodd" clipRule="evenodd" d="M0 23H170V0H0V23Z" fill="white" />
    </mask>
    <g mask="url(#mask0)">
        <path fillRule="evenodd" clipRule="evenodd"
            d="M99.5376 12.3065V14.2705H104.006V15.4765C101.697 15.4765 99.4427 15.4866 97.1882 15.4698C96.6057 15.4665 96.3699 15.0921 96.3674 14.5683C96.3635 13.7543 96.3859 12.9404 96.3575 12.1289C96.3265 11.2695 96.7371 10.964 97.6153 10.9774C99.9712 11.0109 102.328 10.988 104.684 10.988H106.28V8.86264C102.786 8.86264 99.3683 8.81189 95.9538 8.8885C94.7469 8.91627 93.8692 9.96049 93.8197 11.1603C93.7678 12.4233 93.7733 13.6902 93.7953 14.9537C93.8252 16.6634 94.8103 17.6473 96.6022 17.6847L103.011 17.6923H106.485V12.3065H99.5376Z"
            fill="white" />
        <path fillRule="evenodd" clipRule="evenodd"
            d="M49.0073 17.6797H51.619V14.5445H58.5763V17.6923H61.1079V8.84616H58.531V12.1699H51.5651V8.84761H49.0073V17.6797Z"
            fill="white" />
        <path fillRule="evenodd" clipRule="evenodd"
            d="M126.04 8.84616H123.426L123.452 15.4145C123.514 16.783 124.605 17.6567 126.156 17.6923L132.874 17.6899C134.281 17.6581 135.436 16.8201 135.494 15.6402C135.494 15.6402 135.526 11.1298 135.526 8.85338H132.988L132.995 14.3492C133.004 15.154 132.64 15.5083 131.801 15.4968C130.287 15.4775 128.772 15.4698 127.259 15.5006C126.376 15.5189 126.007 15.1945 126.027 14.3237L126.04 8.84616Z"
            fill="white" />
        <path fillRule="evenodd" clipRule="evenodd"
            d="M108.3 8.84616L113.891 17.6923H116.601L122.215 8.87577H119.241C119.241 8.87577 116.458 13.4393 115.275 15.3435C115.028 14.9695 114.824 14.6782 114.638 14.3754C113.623 12.7343 111.24 8.87577 111.24 8.87577C111.24 8.87577 109.25 8.84616 108.3 8.84616Z"
            fill="white" />
        <path fillRule="evenodd" clipRule="evenodd"
            d="M140.972 8.84616L146.563 17.6923H149.273L154.887 8.87577H151.913C151.913 8.87577 149.13 13.4393 147.947 15.3435C147.7 14.9695 147.496 14.6782 147.309 14.3754C146.295 12.7343 143.912 8.87577 143.912 8.87577C143.912 8.87577 141.921 8.84616 140.972 8.84616Z"
            fill="white" />
        <path fillRule="evenodd" clipRule="evenodd"
            d="M67.056 11.0059C66.4129 10.9945 66.0753 11.2687 66.0714 11.9007C66.0656 12.796 66.0729 13.6904 66.0695 14.5862C66.0666 15.1774 66.3696 15.4711 66.966 15.4716C68.8907 15.4749 70.8155 15.4763 72.7408 15.472C73.3649 15.4711 73.7024 15.1898 73.6888 14.5401C73.6703 13.6738 73.6786 12.8084 73.6859 11.943C73.6917 11.3124 73.3819 11.0078 72.7388 11.0101L67.056 11.0059ZM73.578 8.86879C75.206 8.90729 76.1886 9.87912 76.2183 11.464C76.2402 12.6288 76.2373 13.7945 76.2207 14.9593C76.1983 16.5584 75.278 17.5939 73.6505 17.6405C71.1444 17.7099 68.6335 17.7085 66.127 17.6429C64.4799 17.6001 63.5694 16.5964 63.5436 14.9869C63.5246 13.7912 63.5202 12.596 63.5484 11.4013C63.5849 9.85061 64.5456 8.91109 66.1455 8.87022C67.399 8.8379 72.3551 8.83885 73.578 8.86879Z"
            fill="white" />
        <path fillRule="evenodd" clipRule="evenodd"
            d="M90.7543 17.6909H88.139L81.7369 11.7918V17.6923H79.2588V8.8597H82.0051L88.2728 14.7583V8.84616H90.7543V17.6909Z"
            fill="white" />
        <path fillRule="evenodd" clipRule="evenodd"
            d="M168.198 17.6909H165.582L159.18 11.7918V17.6923H156.702V8.8597H159.449L165.716 14.7583V8.84616H168.198V17.6909Z"
            fill="white" />
        <path fillRule="evenodd" clipRule="evenodd"
            d="M42.984 12.8447H36.4868V11.0358H42.984C43.5029 11.0358 43.9232 11.4397 43.9232 11.9395C43.9232 12.4389 43.5029 12.8447 42.984 12.8447ZM43.4676 8.85713C41.2147 8.83651 38.3159 8.85138 36.063 8.8509H33.8813V17.6923H36.4295V14.949C36.8608 14.949 37.8413 14.95 38.177 14.949C39.9921 14.9457 41.8088 14.9903 43.6214 14.9251C45.5661 14.855 46.6243 13.6894 46.5859 11.8014C46.5521 10.1005 45.2762 8.87488 43.4676 8.85713Z"
            fill="white" />
        <path fillRule="evenodd" clipRule="evenodd" d="M137.946 17.6923H140.366V15.3333H137.946V17.6923Z"
            fill="white" />
        <path fillRule="evenodd" clipRule="evenodd"
            d="M13.916 6.19258C13.916 8.6351 15.9475 10.6154 18.4537 10.6154C20.9599 10.6154 22.9914 8.6351 22.9914 6.19258C22.9914 3.74956 20.9599 1.76926 18.4537 1.76926C15.9475 1.76926 13.916 3.74956 13.916 6.19258Z"
            fill="#5FE7FF" />
        <path fillRule="evenodd" clipRule="evenodd"
            d="M1.81543 18.5772C1.81543 21.0197 3.84684 23 6.35339 23C8.85894 23 10.8909 21.0197 10.8909 18.5772C10.8909 16.1341 8.85894 14.1538 6.35339 14.1538C3.84684 14.1538 1.81543 16.1341 1.81543 18.5772Z"
            fill="#5FE7FF" />
        <path fillRule="evenodd" clipRule="evenodd"
            d="M0 6.19231L6.35304 12.3846L12.7056 6.19231L6.35304 0L0 6.19231Z" fill="#5FE7FF" />
        <path fillRule="evenodd" clipRule="evenodd" d="M13.916 23H22.9914V14.1538H13.916V23Z" fill="#5FE7FF" />
    </g>
</svg>